<svg width="116" height="116" viewBox="0 0 116 116" fill="none" xmlns="http://www.w3.org/2000/svg">
<path d="M42.5321 47.76C42.5321 38.736 47.3321 30.416 56.9321 22.8L74.5001 34.512C66.5641 39.504 62.5961 44.784 62.5961 50.352C62.5961 52.72 63.3961 55.216 64.9961 57.84C66.5961 60.464 68.1961 63.056 69.7961 65.616C71.4601 68.176 72.2921 70.576 72.2921 72.816C72.2921 82.096 65.8921 89.264 53.0921 94.32L48.4841 88.08C51.6201 86.352 53.7961 84.688 55.0121 83.088C56.2281 81.488 56.8361 79.728 56.8361 77.808C56.8361 75.888 56.0681 73.744 54.5321 71.376C53.0601 68.944 51.4281 66.736 49.6361 64.752C47.9081 62.768 46.2761 60.24 44.7401 57.168C43.2681 54.096 42.5321 50.96 42.5321 47.76Z" fill="url(#paint0_linear_17051_1021)"/>
<path d="M9 59L1.18718 80.7323L23.9143 76.6323L9 59ZM106 59C106 85.5287 84.7146 107 58.5 107L58.5 111C86.9616 111 110 87.6998 110 59L106 59ZM58.5 107C38.2063 107 20.8667 94.1356 14.0677 76.0085L10.3225 77.4132C17.6806 97.0311 36.4651 111 58.5 111L58.5 107Z" fill="url(#paint1_linear_17051_1021)"/>
<path d="M108 57L115.813 35.2677L93.0857 39.3677L108 57ZM11 57C11 30.4713 32.2854 9 58.5 9V5C30.0384 5 7 28.3002 7 57H11ZM58.5 9C78.7938 9 96.1333 21.8644 102.932 39.9915L106.678 38.5868C99.3194 18.9689 80.5349 5 58.5 5V9Z" fill="url(#paint2_linear_17051_1021)"/>
<defs>
<linearGradient id="paint0_linear_17051_1021" x1="89" y1="58" x2="28" y2="58" gradientUnits="userSpaceOnUse">
<stop offset="0.25" stop-color="#3F7399"/>
<stop offset="1" stop-color="#69BFFF"/>
</linearGradient>
<linearGradient id="paint1_linear_17051_1021" x1="108" y1="84" x2="9.00001" y2="83.9999" gradientUnits="userSpaceOnUse">
<stop stop-color="#69BFFF"/>
<stop offset="0.8" stop-color="#5499CC"/>
<stop offset="1" stop-color="#3F7399"/>
</linearGradient>
<linearGradient id="paint2_linear_17051_1021" x1="9" y1="32" x2="108" y2="32" gradientUnits="userSpaceOnUse">
<stop stop-color="#69BFFF"/>
<stop offset="0.75" stop-color="#41779F"/>
<stop offset="1" stop-color="#3F7399"/>
</linearGradient>
</defs>
</svg>
